<svg width="32" height="41" viewBox="0 0 32 41" fill="none" xmlns="http://www.w3.org/2000/svg">
<path fill-rule="evenodd" clip-rule="evenodd" d="M23.8236 0.078125C24.0756 2.42013 23.1519 4.77392 21.7795 6.46474C20.407 8.15664 18.1545 9.47071 15.9495 9.29707C15.649 7.00143 16.7627 4.60621 18.0343 3.10973C19.4533 1.41983 21.8454 0.159049 23.8236 0.078125ZM31.9919 29.4187C31.7562 29.3216 26.7797 27.2716 26.7255 21.3287C26.6818 16.3727 30.6183 13.9371 30.9561 13.7281C30.9633 13.7236 30.9688 13.7202 30.9727 13.7178C28.6631 10.2768 25.0662 9.8043 23.7848 9.75001C21.9126 9.55692 20.0962 10.2861 18.613 10.8816C17.6712 11.2597 16.8638 11.5839 16.2615 11.5839C15.5895 11.5839 14.7593 11.2487 13.8277 10.8727C12.608 10.3803 11.2146 9.81778 9.77535 9.84572C6.43828 9.89508 3.3638 11.8197 1.6434 14.8591C-1.81971 20.9795 0.759413 30.0464 4.13431 35.0126C5.78587 37.4404 7.7544 40.175 10.3394 40.0753C11.4962 40.0291 12.3186 39.6726 13.1688 39.304C14.1495 38.8789 15.1673 38.4377 16.7781 38.4377C18.3171 38.4377 19.2902 38.8662 20.2259 39.2782C21.1194 39.6716 21.9789 40.05 23.2643 40.0259C25.9423 39.9756 27.6423 37.5479 29.2804 35.1111C31.1141 32.3837 31.9048 29.7404 31.9935 29.4438C31.9965 29.4339 31.9987 29.4266 32.0001 29.4221C31.999 29.4216 31.9963 29.4205 31.9919 29.4187Z" fill="#000A14"/>
</svg>
