<svg width="29" height="29" viewBox="0 0 29 29" fill="none" xmlns="http://www.w3.org/2000/svg">
<path d="M26.75 14.0781C26.75 20.8401 21.2681 26.3281 14.5 26.3281C7.73187 26.3281 2.25 20.8401 2.25 14.0781C2.25 7.31 7.73187 1.82812 14.5 1.82812C21.2681 1.82812 26.75 7.31 26.75 14.0781Z" fill="#283544"/>
<path d="M20.2418 10.9783C20.175 11.0173 18.5837 11.8403 18.5837 13.665C18.6587 15.746 20.5918 16.4757 20.625 16.4757C20.5918 16.5147 20.3332 17.4699 19.5668 18.4711C18.9587 19.3336 18.2837 20.2031 17.2587 20.2031C16.2837 20.2031 15.9337 19.6283 14.8087 19.6283C13.6005 19.6283 13.2587 20.2031 12.3337 20.2031C11.3087 20.2031 10.5837 19.287 9.94236 18.4326C9.10921 17.3144 8.40106 15.5596 8.37606 13.8747C8.35921 12.9818 8.5429 12.1042 9.00921 11.3587C9.66736 10.3179 10.8424 9.61146 12.1255 9.58816C13.1087 9.55727 13.9837 10.2172 14.5837 10.2172C15.1587 10.2172 16.2337 9.58816 17.45 9.58816C17.975 9.58867 19.375 9.73604 20.2418 10.9783ZM14.5005 9.4099C14.3255 8.59453 14.8087 7.77916 15.2587 7.25905C15.8337 6.63005 16.7418 6.20312 17.525 6.20312C17.575 7.01849 17.2581 7.81816 16.6918 8.40056C16.1837 9.02956 15.3087 9.50308 14.5005 9.4099Z" fill="white"/>
</svg>
