<svg width="98" height="28" viewBox="0 0 98 28" fill="none" xmlns="http://www.w3.org/2000/svg">
<path fill-rule="evenodd" clip-rule="evenodd" d="M13.7749 27.8338C13.1038 27.8292 12.4404 27.7283 11.7997 27.5306C11.0987 27.3148 10.4211 27.0262 9.7751 26.6724C8.89483 26.2182 8.05197 25.6887 7.25925 25.0913C6.54382 24.5291 5.87016 23.9171 5.23955 23.2592C4.38442 22.3985 3.58645 21.5202 2.93016 20.7103C2.20511 19.8521 1.57868 18.911 1.06299 17.907L1.01758 17.817V17.8145L1.00818 17.7921V17.7817L0.958222 17.6737L0.955745 17.6661L0.950523 17.659L0.903285 17.5532L0.89803 17.5408V17.5357L0.860405 17.4579L0.850975 17.4328L0.843216 17.413L0.835795 17.3975V17.395L0.798515 17.3123L0.796043 17.3025L0.785717 17.2921L0.741045 17.1896L0.733436 17.1747L0.691269 17.0694L0.688797 17.0643L0.686325 17.0565L0.601278 16.8433V16.8408L0.596391 16.8286L0.559295 16.7301L0.556823 16.7206L0.551596 16.7104C0.541271 16.6802 0.529339 16.6474 0.519199 16.6172V16.6102L0.51141 16.5922C0.499106 16.5551 0.489148 16.5272 0.479564 16.4995V16.4944L0.471776 16.472L0.434152 16.3763L0.427104 16.3488L0.397239 16.2613L0.391984 16.2459L0.389513 16.2339C0.376868 16.2009 0.36979 16.1709 0.36203 16.1457L0.351888 16.118L0.329627 16.0403L0.324372 16.0255V16.0231L0.320047 16.005L0.297045 15.9273L0.292531 15.9153L0.290059 15.8945C0.279919 15.865 0.272159 15.8399 0.267615 15.8142L0.257506 15.7847C0.252436 15.759 0.244646 15.7321 0.237783 15.7018L0.22999 15.6743V15.6665C0.225105 15.6467 0.217316 15.619 0.210267 15.5888L0.200125 15.5509C0.194901 15.5257 0.189834 15.501 0.18294 15.4706L0.180157 15.4533L0.175114 15.4334C0.170044 15.4083 0.164793 15.3832 0.15793 15.3581L0.152675 15.3202C0.150201 15.3029 0.145255 15.2848 0.142349 15.265V15.2452L0.135485 15.2071V15.2018L0.125159 15.144C0.120275 15.1267 0.117738 15.1094 0.115017 15.0914L0.105436 15.0343C0.102963 15.0162 0.100362 14.9988 0.0978274 14.986C0.0953542 14.9713 0.092759 14.9436 0.0875344 14.921L0.0826521 14.8806C0.0807972 14.8556 0.0755723 14.8332 0.0728827 14.8081L0.0625567 14.7702V14.7631C0.0576722 14.7356 0.0576736 14.713 0.05316 14.6899C0.05316 14.6777 0.0506843 14.6648 0.0482729 14.6526V14.6475C0.0454906 14.6249 0.0430198 14.5998 0.0404848 14.5776C0.0404848 14.5619 0.0380082 14.5499 0.0380082 14.5344V14.5319C0.0352259 14.5121 0.0327533 14.4921 0.0327533 14.4722C0.0327533 14.4542 0.0282389 14.4369 0.0282389 14.4196C0.0282389 14.4014 0.0257679 14.3841 0.0233565 14.3668C0.0233565 14.3462 0.0205734 14.3264 0.0205734 14.3067C0.0205734 14.2865 0.0205747 14.2737 0.0181015 14.259C0.0156284 14.2435 0.0180982 14.2186 0.015625 14.1983V14.1958C0.015625 14.1785 0.015625 14.1631 0.015625 14.1459C0.015625 14.1277 0.015625 14.1179 0.015625 14.1052V14.0879C0.015625 14.068 0.015625 14.05 0.015625 14.0327C0.015625 14.0128 0.015625 14.0026 0.015625 13.9877V13.8746C0.015625 13.8522 0.015625 13.8296 0.015625 13.8045C0.015625 13.7892 0.015625 13.7719 0.015625 13.7565C0.015625 13.7417 0.015625 13.7166 0.015625 13.6967C0.015625 13.6838 0.015625 13.6736 0.015625 13.6614V13.6439C0.015625 13.6184 0.0156284 13.5958 0.0181015 13.5734C0.0181015 13.5612 0.0181015 13.5483 0.0181015 13.5335C0.0181015 13.513 0.0205742 13.4904 0.0233565 13.4627C0.0233565 13.4507 0.0233552 13.4378 0.0258284 13.4257C0.0258284 13.4006 0.0303409 13.3775 0.0328759 13.3524V13.3125C0.0328759 13.2874 0.0353486 13.2652 0.0381309 13.24L0.0432019 13.2022V13.1943C0.0432019 13.1719 0.0484566 13.1494 0.0508061 13.1218C0.0508061 13.1115 0.0508069 13.1046 0.0553205 13.0942V13.0794C0.0577937 13.0543 0.060391 13.0286 0.0656465 13.0062L0.0705335 12.9714C0.0730067 12.9463 0.0782915 12.9188 0.0808265 12.8937L0.0851853 12.8662V12.8611C0.0904099 12.836 0.0929461 12.8108 0.0980161 12.7808L0.10562 12.7455C0.110134 12.7178 0.115205 12.6903 0.120461 12.6626L0.125343 12.64V12.6276C0.130599 12.6001 0.13567 12.5699 0.140183 12.5424L0.145438 12.5173V12.5148C0.152858 12.4871 0.158114 12.4569 0.164977 12.4292V12.419L0.167449 12.4017C0.172705 12.3741 0.180279 12.3466 0.187884 12.3136L0.194965 12.2888C0.200189 12.2612 0.207793 12.2307 0.217376 12.1961L0.219853 12.1809L0.222325 12.171C0.23265 12.1384 0.24044 12.1056 0.250024 12.0701L0.255095 12.0505C0.265204 12.0149 0.272283 11.9855 0.282578 11.9552L0.287649 11.9321C0.295254 11.9046 0.30502 11.8697 0.31516 11.8371V11.8318L0.320231 11.8145C0.332349 11.7819 0.342674 11.7466 0.352072 11.7169L0.357327 11.699C0.367436 11.6663 0.379585 11.6315 0.39223 11.5883L0.395013 11.5814V11.5789C0.406946 11.541 0.419621 11.5037 0.431925 11.4682L0.43718 11.4529C0.449855 11.4183 0.46179 11.383 0.474805 11.35L0.479876 11.3356C0.494529 11.2923 0.507206 11.2603 0.51951 11.2273L0.524392 11.2146C0.536696 11.18 0.551906 11.1421 0.56656 11.1042L0.569343 11.0971C0.584522 11.0592 0.599359 11.0219 0.616548 10.9766L0.621435 10.9687C0.637016 10.9288 0.651669 10.891 0.668857 10.8562L0.673928 10.8434C0.689293 10.8081 0.703945 10.7735 0.721134 10.7304L0.728927 10.718C0.741602 10.6854 0.758945 10.6475 0.778514 10.6025L0.783736 10.5927C0.80346 10.5446 0.823928 10.5048 0.838767 10.4696C1.8363 8.31179 3.32945 6.80844 4.77339 5.35552L4.80325 5.32528C5.64336 4.47984 6.42903 3.7571 7.20203 3.11723C8.08505 2.37937 9.02721 1.71182 10.0197 1.12749C10.5708 0.796439 11.1616 0.540235 11.7779 0.364706C12.3061 0.216462 12.852 0.141266 13.3983 0.141266C14.1364 0.146181 14.8672 0.271659 15.5649 0.512552C16.2331 0.741281 16.8793 1.02952 17.4951 1.37333C18.4803 1.90521 19.4248 2.51032 20.3225 3.18222C21.1682 3.81499 21.9662 4.51023 22.7117 5.25774C23.4892 6.05039 24.2003 6.90367 24.8387 7.81451C25.4367 8.62517 25.9309 9.50851 26.3074 10.4445C26.5512 11.0996 26.7607 11.7697 26.9306 12.4468C27.0799 13.0364 27.1647 13.6417 27.1827 14.2486C27.1921 14.8435 27.1224 15.4378 26.968 16.0151C26.7882 16.6724 26.5316 17.3103 26.2046 17.907C25.7387 18.7851 25.1948 19.6207 24.5769 20.399C23.9635 21.1645 23.3046 21.8918 22.6071 22.5797C21.8536 23.337 21.0582 24.0552 20.2281 24.7273C19.358 25.4326 18.4452 26.0825 17.4951 26.6725C16.3904 27.4072 15.099 27.8087 13.7752 27.8338L13.7749 27.8338ZM15.8118 24.7651C15.2581 25.0913 14.6621 25.3374 14.0391 25.4902C14.6621 25.3374 15.2581 25.0913 15.8118 24.7651ZM7.68322 23.6582C7.74056 23.6986 7.79992 23.7385 7.85998 23.7789C7.7954 23.734 7.73803 23.6961 7.68322 23.6582ZM5.66352 21.9624L5.76557 22.0625L5.66352 21.9624ZM6.63826 12.2612L6.60549 12.3291V12.3362L6.5782 12.3992L6.57572 12.407L6.54821 12.4691V12.4742L6.52088 12.5399V12.5424L6.49593 12.61V12.6125L6.47095 12.6728V12.6826L6.44869 12.7403L6.44591 12.748L6.42619 12.8057V12.8135C6.41858 12.8334 6.41351 12.8534 6.40646 12.8732V12.8785C6.39886 12.9036 6.3911 12.9215 6.38621 12.9388L6.38405 12.949L6.36615 13.0036L6.36368 13.0165C6.35932 13.0338 6.35428 13.0518 6.34902 13.0691V13.0821L6.33381 13.1347L6.30887 13.1495L6.30639 13.1622L6.29409 13.2046L6.29161 13.217C6.28639 13.2349 6.28151 13.2524 6.27897 13.2702L6.27442 13.2826L6.26178 13.3456L6.25653 13.3627L6.25201 13.3929V13.4077L6.24188 13.4481V13.4559L6.23427 13.4811L6.22666 13.5131L6.22481 13.5284V13.546C6.22234 13.5614 6.21974 13.5761 6.21702 13.5914L6.21454 13.6087L6.20947 13.6511L6.20441 13.6712C6.20441 13.6839 6.20193 13.6988 6.19989 13.7141V13.7342C6.19989 13.7495 6.19742 13.7618 6.19482 13.7771V13.8145C6.19482 13.8248 6.19482 13.8318 6.19235 13.8421V13.8773C6.19235 13.8849 6.19235 13.8948 6.19235 13.9052C6.19235 13.9126 6.19235 13.9172 6.19235 13.9248C6.19235 13.9326 6.19235 13.9499 6.18957 13.9627C6.18957 13.9672 6.18957 13.9723 6.18957 13.9776V13.9878C6.18957 13.9975 6.18957 14.0102 6.18957 14.025C6.18957 14.0377 6.18957 14.043 6.18957 14.0527C6.18957 14.0628 6.18957 14.0732 6.18957 14.0829V14.1157C6.18957 14.1258 6.18957 14.1382 6.18957 14.151V14.2384C6.18957 14.2486 6.18957 14.259 6.18957 14.2686C6.18957 14.2786 6.18957 14.291 6.18957 14.3014V14.3289C6.18957 14.3413 6.18957 14.3515 6.18957 14.3642V14.3919C6.18957 14.3988 6.18957 14.4066 6.18957 14.4145V14.4569C6.18957 14.4644 6.18957 14.4742 6.18957 14.4844V14.5421C6.18957 14.5551 6.19235 14.5672 6.19479 14.5802C6.19479 14.5845 6.19479 14.5898 6.19479 14.5949V14.6051C6.19479 14.6175 6.19726 14.6302 6.19986 14.645V14.6674L6.20202 14.688L6.2045 14.7053L6.20697 14.7304V14.7408L6.20975 14.7632V14.7883L6.21482 14.8056V14.8333L6.21729 14.8486L6.22255 14.8806V14.891L6.22706 14.9083V14.9185L6.23195 14.9436L6.23473 14.9609C6.23721 14.9766 6.2398 14.9914 6.24469 15.0041L6.24747 15.0239L6.25433 15.054L6.25681 15.0689V15.087L6.26694 15.1294L6.27217 15.1492C6.27724 15.1673 6.28178 15.1822 6.28413 15.1949L6.28939 15.2122L6.30222 15.2572L6.30469 15.2648V15.2752C6.30924 15.2874 6.31446 15.3027 6.317 15.3176L6.32207 15.3349L6.33925 15.3876V15.3954L6.35465 15.4427V15.4582L6.3617 15.4806L6.3693 15.5057L6.37178 15.5161V15.5205L6.38442 15.5584L6.38897 15.5688L6.39419 15.5835V15.5913L6.4094 15.6338L6.41391 15.6465L6.43184 15.6991L6.43691 15.7063V15.7113L6.45664 15.7665L6.45942 15.7742L6.48168 15.8295L6.48415 15.8372L6.50422 15.8847L6.50669 15.8944V15.9023C6.51448 15.9195 6.52153 15.9401 6.53167 15.9599L6.53414 15.965L6.55659 16.0229L6.56147 16.03L6.57885 16.0731L6.58407 16.0852L6.58896 16.0954L6.61647 16.1535V16.1584L6.61925 16.1629L6.64386 16.2234V16.231L6.65363 16.2458L6.67406 16.2915V16.294L6.68349 16.3167L6.70411 16.359C7.32964 17.4581 8.1104 18.4596 9.02 19.3326C9.74307 20.1079 10.5986 20.7504 11.5413 21.2269C12.2166 21.6259 12.9802 21.8469 13.7627 21.872C14.4987 21.8597 15.2163 21.6361 15.8297 21.2269C16.86 20.5819 17.8123 19.8193 18.6702 18.9536C19.4656 18.1981 20.1383 17.3226 20.6676 16.359C21.4527 14.8808 21.3032 13.8048 20.7244 12.2162C20.2557 11.1549 19.5951 10.1915 18.7774 9.3757C17.9221 8.5175 16.9446 7.7895 15.88 7.2179C15.1893 6.80365 14.4085 6.56764 13.6057 6.53233C12.9474 6.54014 12.3016 6.72571 11.7405 7.07204C10.6756 7.71701 9.7009 8.50257 8.84305 9.4032L8.82604 9.4205C7.93273 10.2261 7.18976 11.1872 6.64133 12.2613L6.63826 12.2612ZM5.35372 21.6561L5.53142 21.8343L5.35372 21.6561ZM20.9434 20.5997C20.8058 20.7449 20.6566 20.896 20.4995 21.0566C20.3153 21.2422 20.1255 21.4252 19.9335 21.6084C20.1255 21.4252 20.3177 21.2422 20.4995 21.0566C20.6591 20.896 20.8058 20.7449 20.9434 20.5997ZM23.7435 16.7802C23.7086 16.8483 23.6734 16.9133 23.6387 16.9812C23.4071 17.418 23.1525 17.8421 22.878 18.2505C23.1525 17.8421 23.4071 17.418 23.6387 16.9812C23.6734 16.9133 23.7086 16.8457 23.7435 16.7802ZM24.0601 11.4485C24.2324 11.9855 24.3596 12.5347 24.4394 13.0942C24.3596 12.5347 24.2344 11.9829 24.0601 11.4459V11.4485ZM19.8586 5.24728C20.1103 5.47617 20.3546 5.70944 20.5914 5.94782C21.27 6.63758 21.8911 7.38269 22.4496 8.17609C22.6909 8.52223 22.9079 8.8582 23.0977 9.18197C22.3947 8.00545 21.5542 6.91907 20.5914 5.94782C20.3546 5.70689 20.1103 5.47617 19.8586 5.24728ZM15.4926 2.27387C15.6674 2.35946 15.8469 2.45251 16.0409 2.55795C16.5795 2.84619 17.1081 3.16487 17.6118 3.50084C17.1081 3.16487 16.5795 2.84875 16.0409 2.55795C15.8469 2.45507 15.6674 2.35656 15.4926 2.27387ZM6.95981 15.5507C6.86988 15.3374 6.79278 15.1215 6.73073 14.8986C6.65292 14.6249 6.61075 14.3412 6.60061 14.0553C6.62794 14.5723 6.74792 15.0767 6.95981 15.5481V15.5507Z" fill="#53B7D1"/>
<path fill-rule="evenodd" clip-rule="evenodd" d="M42.921 20.2542C43.5396 20.2542 44.1103 20.2414 44.6318 20.2163C45.1551 20.1912 45.6914 20.1386 46.2477 20.0557C46.4568 20.0084 46.649 20.1861 46.6139 20.402V22.2463C46.6139 22.4597 46.4842 22.6079 46.2227 22.6882C45.5843 22.8887 44.928 23.0267 44.2647 23.107C43.5621 23.2021 42.8509 23.2527 42.1406 23.2549C40.9957 23.2849 39.859 23.0943 38.7893 22.6882C37.9191 22.3439 37.1537 21.7798 36.5626 21.0494C35.9639 20.2793 35.5375 19.3832 35.3161 18.4298C35.0416 17.278 34.912 16.0959 34.9247 14.9141V13.7822C34.912 12.5982 35.039 11.4165 35.3059 10.2644C35.5178 9.31056 35.9365 8.41738 36.5275 7.64496C37.1109 6.9144 37.8744 6.34989 38.7394 6.00612C39.8091 5.59949 40.9487 5.40848 42.0906 5.4389C43.4197 5.44926 44.7386 5.66505 46.003 6.07877C46.1154 6.10646 46.2174 6.16653 46.2972 6.25211C46.3495 6.33241 46.3745 6.42767 46.3694 6.52324V8.29431C46.4044 8.50755 46.2124 8.6887 46.003 8.63864C45.5467 8.57564 45.048 8.52575 44.5118 8.49022C43.973 8.45491 43.4271 8.44016 42.8739 8.44252C42.2028 8.42267 41.5346 8.53266 40.9065 8.7612C40.3876 8.96423 39.9414 9.31566 39.6222 9.77253C39.2706 10.2948 39.0336 10.8844 38.9239 11.5063C38.7745 12.322 38.7042 13.15 38.7169 13.9782V14.7413C38.7042 15.5718 38.7795 16.3998 38.9366 17.2151C39.051 17.8349 39.2979 18.4221 39.6573 18.9365C39.9911 19.3856 40.4449 19.7319 40.9659 19.933C41.5919 20.1612 42.2553 20.269 42.921 20.2516V20.2542ZM49.4487 6.13121C49.4487 5.86808 49.5711 5.73754 49.8157 5.73754H52.8478C53.0771 5.70493 53.2717 5.90068 53.239 6.13121V18.8488C53.2117 19.2199 53.2965 19.5886 53.4836 19.9098C53.7453 20.1784 54.1167 20.3068 54.4857 20.2542H60.2779C60.5077 20.2212 60.7017 20.4168 60.6698 20.6479V22.4672C60.6698 22.7807 60.5327 22.9439 60.2557 22.9612C59.358 23.0415 58.3304 23.1119 57.1738 23.17C56.0165 23.2278 54.8177 23.2549 53.5806 23.2549C52.925 23.2677 52.274 23.2021 51.6358 23.0595C51.1644 22.9566 50.7233 22.7408 50.3513 22.4318C50.0174 22.1332 49.7755 21.7444 49.6561 21.3129C49.5036 20.7609 49.4341 20.1886 49.4467 19.6137L49.4487 6.13121ZM66.736 22.5424C66.7686 22.7858 66.5617 22.9938 66.3198 22.9592H63.3599C63.118 22.9938 62.911 22.7858 62.9461 22.5424V6.17891C62.9461 5.88538 63.0836 5.73754 63.3599 5.73754H66.3198C66.5969 5.73754 66.736 5.88538 66.736 6.17891V22.5424ZM78.1762 20.2542C78.7972 20.2542 79.3679 20.2414 79.8894 20.2163C80.4103 20.1912 80.949 20.1386 81.5025 20.0557C81.7119 20.0054 81.904 20.1861 81.8689 20.3995V22.2463C81.8689 22.4597 81.7394 22.6079 81.4776 22.6882C80.8393 22.886 80.1863 23.0267 79.523 23.107C78.8171 23.2021 78.1065 23.2504 77.3962 23.2549C76.2517 23.2849 75.1141 23.0943 74.0449 22.6882C73.1742 22.3419 72.4088 21.7798 71.8203 21.0494C71.2221 20.2768 70.7959 19.3832 70.5736 18.4298C70.2992 17.278 70.1696 16.0959 70.1823 14.9116V13.7797C70.1696 12.5983 70.2972 11.4165 70.5641 10.2644C70.776 9.31056 71.1947 8.41739 71.7858 7.64241C72.3693 6.91186 73.132 6.34734 73.9969 6.00612C75.0669 5.59949 76.2063 5.40611 77.3482 5.4389C78.6773 5.44926 79.9992 5.66505 81.2606 6.07877C81.373 6.10646 81.475 6.16653 81.5548 6.25211C81.6073 6.33241 81.6321 6.42493 81.6275 6.52324V8.29431C81.6621 8.50755 81.47 8.6887 81.2606 8.63864C80.8043 8.57309 80.3083 8.52575 79.7694 8.49022C79.2313 8.45491 78.6849 8.44016 78.1315 8.44252C77.4606 8.42267 76.7924 8.53066 76.1641 8.7612C75.6452 8.96423 75.2015 9.31565 74.8798 9.76978C74.5282 10.2922 74.2913 10.8844 74.1821 11.5063C74.0347 12.322 73.9651 13.15 73.9747 13.9782V14.7413C73.9651 15.5718 74.0373 16.3998 74.1942 17.2123C74.3091 17.8325 74.5555 18.4221 74.9174 18.9365C75.2487 19.3856 75.7027 19.7319 76.2242 19.933C76.8497 20.1612 77.5129 20.269 78.1788 20.2516L78.1762 20.2542ZM96.9796 5.73754C97.0893 5.72478 97.1965 5.78249 97.2489 5.88338C97.2961 5.99081 97.2764 6.11665 97.1991 6.2046L91.968 14.0282L97.8847 22.5172C97.9498 22.5952 97.962 22.7055 97.9223 22.7986C97.8751 22.9111 97.7602 22.9765 97.6408 22.9592H94.192C94.0496 22.9663 93.9079 22.9413 93.7783 22.886C93.666 22.8211 93.5708 22.7281 93.5089 22.6149L88.4967 14.9392V22.5398C88.5319 22.7833 88.3225 22.9938 88.0806 22.9592H85.1205C84.8786 22.9938 84.6718 22.7833 84.7069 22.5398V6.17891C84.7069 5.88339 84.8442 5.73499 85.1205 5.73499H88.0806C88.3576 5.73499 88.4967 5.88339 88.4967 6.17891V13.1172L93.1675 6.03107C93.2945 5.84297 93.5038 5.73243 93.7286 5.73499L96.9796 5.73754Z" fill="#4D4D4D"/>
</svg>
