<svg width="150" height="151" viewBox="0 0 150 151" fill="none" xmlns="http://www.w3.org/2000/svg">
<path d="M75 42.2656V51.6406" stroke="#1F2022" stroke-width="4" stroke-linecap="round" stroke-linejoin="round"/>
<path d="M75 98.5156V107.891" stroke="#1F2022" stroke-width="4" stroke-linecap="round" stroke-linejoin="round"/>
<path d="M75 131.328C106.066 131.328 131.25 106.144 131.25 75.0781C131.25 44.0121 106.066 18.8281 75 18.8281C43.934 18.8281 18.75 44.0121 18.75 75.0781C18.75 106.144 43.934 131.328 75 131.328Z" stroke="#1F2022" stroke-width="4" stroke-linecap="round" stroke-linejoin="round"/>
<path d="M60.9375 98.5156H82.0312C85.1393 98.5156 88.12 97.281 90.3177 95.0833C92.5153 92.8856 93.75 89.9049 93.75 86.7969C93.75 83.6889 92.5153 80.7082 90.3177 78.5105C88.12 76.3128 85.1393 75.0781 82.0312 75.0781H67.9688C64.8607 75.0781 61.88 73.8435 59.6823 71.6458C57.4847 69.4481 56.25 66.4674 56.25 63.3594C56.25 60.2514 57.4847 57.2707 59.6823 55.073C61.88 52.8753 64.8607 51.6406 67.9688 51.6406H89.0625" stroke="#1F2022" stroke-width="4" stroke-linecap="round" stroke-linejoin="round"/>
</svg>
