<svg width="39" height="39" viewBox="0 0 39 39" fill="none" xmlns="http://www.w3.org/2000/svg">
<path fill-rule="evenodd" clip-rule="evenodd" d="M20.0568 0.078125H18.8507C13.0228 0.392427 8.79645 2.59032 5.70001 5.62381C2.61774 8.64325 0.31279 12.7189 0.0194602 18.4684C0.0227316 18.4906 0.0152662 18.5023 0 18.5065V19.6499C0.306331 25.4214 2.59878 29.4551 5.69992 32.5135C8.80106 35.572 12.9848 37.7534 18.8507 38.0781H20.0373C26.02 37.7898 29.9835 35.5236 33.2076 32.5326C36.2767 29.3837 38.6096 25.5137 38.9075 19.6499V18.5065C38.6012 12.735 36.3088 8.70126 33.2076 5.64288C30.1064 2.58449 25.9235 0.402205 20.0568 0.078125ZM11.9057 3.94659C12.8453 3.49145 13.8819 3.1064 15.0377 2.80319C16.2023 2.49768 17.4786 2.33268 18.8315 2.26958C21.5834 2.14123 24.1529 2.73951 26.1267 3.54642C28.161 4.37807 29.8872 5.5287 31.3208 6.8814C34.2181 9.61521 36.4135 13.2001 36.6706 18.4872C36.8064 21.2782 36.1783 23.5822 35.3477 25.5766C33.7054 29.5192 30.7423 32.3766 26.9825 34.2286C25.064 35.1734 22.7485 35.7619 20.0763 35.8865C17.2905 36.0165 14.8166 35.4366 12.8201 34.6098C8.78269 32.9377 5.86533 30.1868 3.94908 26.4532C2.97876 24.5623 2.3645 22.344 2.23725 19.7069C2.03544 15.524 3.42903 12.3341 5.03852 9.85432C6.68753 7.31386 9.04591 5.33191 11.9057 3.94659Z" fill="#0083CA"/>
<path fill-rule="evenodd" clip-rule="evenodd" d="M20.1923 15.3782L20.1924 15.3782C20.7148 15.7233 21.2372 16.0684 21.7278 16.4457C20.893 16.9753 20.0678 17.5147 19.2426 18.0541L19.2425 18.0542C18.6553 18.438 18.0681 18.8218 17.4775 19.2021C17.5853 19.2854 17.7005 19.3612 17.8156 19.437C17.931 19.5129 18.0463 19.5888 18.1541 19.6721L18.4872 19.4589L18.4876 19.4587C19.8091 18.6128 21.1305 17.7669 22.4469 16.9157C23.0869 17.316 23.7171 17.7263 24.3078 18.1765C23.4829 18.7029 22.674 19.2454 21.8652 19.7879L21.8651 19.7879C21.2716 20.1859 20.6782 20.5839 20.0785 20.9755C20.2124 21.0856 20.3655 21.176 20.5186 21.2665C20.6057 21.3179 20.6927 21.3693 20.7762 21.4243C21.8423 20.765 22.889 20.0861 23.9357 19.4073C24.3272 19.1534 24.7187 18.8995 25.1112 18.6466V15.6123H28.2831V21.6594C28.8377 21.6903 29.4275 21.6856 30.0172 21.681C30.3794 21.6781 30.7417 21.6753 31.0957 21.6806V24.5227H25.1112V21.6379C23.9556 22.3473 22.7812 23.1177 21.6098 23.8862L21.6097 23.8862L21.6096 23.8863C20.9987 24.2871 20.3886 24.6873 19.7824 25.0781C18.839 24.4591 17.9131 23.8223 16.9872 23.1856L16.9871 23.1855L16.9871 23.1855C16.1053 22.5791 15.2236 21.9726 14.3267 21.3816C13.794 23.0876 12.5289 24.371 10.4357 24.5227C9.75873 24.5716 9.03391 24.5508 8.28323 24.5293H8.28318C7.58624 24.5093 6.867 24.4887 6.14307 24.5227V15.6123C6.85022 15.6597 7.58347 15.6354 8.30244 15.6117C9.49477 15.5723 10.6479 15.5342 11.5776 15.826C12.8954 16.2396 13.8297 17.302 14.2631 18.6251C15.4646 17.8627 16.6534 17.0875 17.8423 16.3124L17.8423 16.3123C18.4743 15.9003 19.1062 15.4883 19.7401 15.0781C19.8903 15.1787 20.0413 15.2784 20.1923 15.3782ZM9.16687 18.4756V21.6807C9.24094 21.6811 9.31328 21.6819 9.38392 21.6826L9.3841 21.6826C10.034 21.6894 10.5409 21.6948 10.9431 21.3817C11.6066 20.8653 11.7403 19.5851 11.1545 18.9029C10.7637 18.4478 10.1037 18.3522 9.18793 18.4115C9.1635 18.4151 9.16505 18.4453 9.16687 18.4756ZM35.0921 15.6123H31.9202C31.8956 15.6159 31.8972 15.6459 31.8988 15.6761L31.8989 15.6764V24.5227H37.8834V21.6807H35.0921V15.6123Z" fill="#0083CA"/>
</svg>
