<svg width="22" height="23" viewBox="0 0 22 23" fill="none" xmlns="http://www.w3.org/2000/svg">
<path fill-rule="evenodd" clip-rule="evenodd" d="M12.7886 2.56847C11.7273 1.64256 10.0751 1.68822 9.04258 2.72541L8.38426 3.38464L8.28342 3.4753C8.03863 3.67438 7.72992 3.78519 7.41048 3.78519H6.46723L6.3051 3.78988C4.91027 3.87077 3.7927 4.98868 3.71183 6.384L3.70715 6.54619V7.48761L3.70042 7.6239C3.66916 7.93955 3.52999 8.23638 3.30362 8.46437L2.63801 9.13089L2.51399 9.2638C1.56339 10.3513 1.60944 12.0037 2.64764 13.036L3.30501 13.6943L3.39605 13.7951C3.59596 14.0399 3.70715 14.3489 3.70715 14.6679V15.6111L3.71183 15.7733C3.79581 17.2221 4.99769 18.3712 6.46723 18.3712H7.41048L7.54635 18.3779C7.86123 18.4092 8.15863 18.5486 8.38632 18.7747L9.04368 19.4321L9.18498 19.5643C10.2735 20.5149 11.9259 20.4689 12.9573 19.4304L13.6154 18.7733L13.7164 18.6822C13.9617 18.4822 14.2703 18.3712 14.5898 18.3712H15.5321L15.6944 18.3665C17.1436 18.2826 18.2931 17.0812 18.2931 15.6111V14.6679L18.2999 14.5317C18.3311 14.2162 18.47 13.9192 18.6946 13.6941L19.3623 13.0264L19.4863 12.8934C20.4365 11.8053 20.3902 10.1541 19.3529 9.12154L18.694 8.46264L18.6032 8.36161C18.4037 8.11651 18.2931 7.80825 18.2931 7.48761V6.54619L18.2885 6.38398C18.2045 4.93484 17.0023 3.78519 15.5321 3.78519H14.5898L14.4535 3.77847C14.1377 3.74727 13.8409 3.6084 13.6145 3.38315L12.9557 2.7243L12.7886 2.56847ZM11.9762 3.69044L12.0127 3.72438L12.6434 4.35667L12.7765 4.48071C13.2778 4.91793 13.9213 5.16029 14.5897 5.16029H15.5321L15.6582 5.16595C16.3644 5.22971 16.9181 5.82358 16.9181 6.54629V7.4877L16.924 7.66934C16.9676 8.33236 17.2489 8.95884 17.72 9.43328L18.3817 10.095L18.4773 10.2003C18.9237 10.7446 18.8944 11.5469 18.3886 12.0556L17.7217 12.7225L17.5977 12.8552C17.1608 13.3554 16.9181 13.9998 16.9181 14.668V15.6112L16.9124 15.7373C16.8487 16.4431 16.255 16.9963 15.5321 16.9963H14.5897L14.4082 17.0023C13.7456 17.046 13.1182 17.3283 12.6445 17.7997L11.9837 18.4596L11.8785 18.5553C11.3344 19.0023 10.5315 18.9727 10.0198 18.4639L9.35679 17.8008L9.22333 17.6767C8.72082 17.2391 8.07755 16.9963 7.41041 16.9963H6.46716L6.34113 16.9906C5.63547 16.9269 5.08207 16.3336 5.08207 15.6112V14.668L5.07608 14.4865C5.03225 13.8239 4.74965 13.1957 4.27812 12.7231L3.6188 12.0628L3.52304 11.9575C3.07603 11.413 3.10548 10.6103 3.61131 10.1022L4.27788 9.43467L4.402 9.30122C4.83952 8.79882 5.08207 8.1561 5.08207 7.4877V6.54629L5.08774 6.42018C5.15148 5.71409 5.74522 5.16029 6.46716 5.16029H7.41041L7.59175 5.15432C8.25381 5.11067 8.88092 4.82918 9.35506 4.35839L10.0162 3.69633L10.1214 3.60084C10.6652 3.15504 11.4681 3.18465 11.9762 3.69044Z" fill="white"/>
<path d="M7.5 11.5781L10 14.0781L14.5 9.57812" stroke="white" stroke-linecap="round" stroke-linejoin="round"/>
</svg>
