<svg width="29" height="29" viewBox="0 0 29 29" fill="none" xmlns="http://www.w3.org/2000/svg">
<path d="M26.751 14.3504C26.751 13.3432 26.6676 12.6082 26.4871 11.846H14.751V16.392H21.6398C21.501 17.5218 20.751 19.2232 19.0843 20.3664L19.0609 20.5186L22.7716 23.3358L23.0287 23.361C25.3898 21.224 26.751 18.0798 26.751 14.3504Z" fill="#4285F4"/>
<path d="M14.7506 26.3282C18.1256 26.3282 20.9589 25.2392 23.0284 23.3609L19.0839 20.3664C18.0284 21.0878 16.6117 21.5914 14.7506 21.5914C11.4451 21.5914 8.63959 19.4545 7.6395 16.5009L7.49291 16.5131L3.63444 19.4395L3.58398 19.577C5.63951 23.5786 9.86173 26.3282 14.7506 26.3282Z" fill="#34A853"/>
<path d="M7.63981 16.501C7.37592 15.7388 7.2232 14.9221 7.2232 14.0782C7.2232 13.2343 7.37592 12.4176 7.62592 11.6554L7.61893 11.4931L3.7121 8.51968L3.58428 8.57927C2.73709 10.2398 2.25098 12.1046 2.25098 14.0782C2.25098 16.0518 2.73709 17.9165 3.58428 19.5771L7.63981 16.501Z" fill="#FBBC05"/>
<path d="M14.7507 6.56476C17.0979 6.56476 18.6812 7.55836 19.584 8.3887L23.1118 5.01312C20.9452 3.03952 18.1257 1.82812 14.7507 1.82812C9.86176 1.82812 5.63952 4.57755 3.58398 8.57918L7.62564 11.6553C8.63962 8.70173 11.4452 6.56476 14.7507 6.56476Z" fill="#EB4335"/>
</svg>
