<svg width="150" height="151" viewBox="0 0 150 151" fill="none" xmlns="http://www.w3.org/2000/svg">
<path d="M75.5557 75.0781L74.9336 135.319" stroke="#1F2022" stroke-width="4" stroke-linecap="round" stroke-linejoin="round"/>
<path d="M128.84 102.812V47.3443C128.84 46.5142 128.619 45.699 128.201 44.982C127.783 44.265 127.182 43.672 126.459 43.2636L77.2401 15.4443C76.5364 15.0465 75.7419 14.8375 74.9336 14.8375C74.1253 14.8375 73.3307 15.0465 72.6271 15.4443L23.4083 43.2636C22.6857 43.672 22.0844 44.265 21.6661 44.982C21.2478 45.699 21.0273 46.5142 21.0273 47.3443V102.812C21.0273 103.642 21.2478 104.457 21.6661 105.174C22.0844 105.891 22.6857 106.484 23.4083 106.893L72.6271 134.712C73.3307 135.11 74.1253 135.319 74.9336 135.319C75.7419 135.319 76.5364 135.11 77.2401 134.712L126.459 106.893C127.182 106.484 127.783 105.891 128.201 105.174C128.619 104.457 128.84 103.642 128.84 102.812V102.812Z" stroke="#1F2022" stroke-width="4" stroke-linecap="round" stroke-linejoin="round"/>
<path d="M128.198 44.9768L75.5561 75.0782L21.6738 44.9703" stroke="#1F2022" stroke-width="4" stroke-linecap="round" stroke-linejoin="round"/>
<path d="M103.724 87.0963V58.9713L49.3613 28.5951" stroke="#1F2022" stroke-width="4" stroke-linecap="round" stroke-linejoin="round"/>
</svg>
