<svg width="85" height="25" viewBox="0 0 85 25" fill="none" xmlns="http://www.w3.org/2000/svg">
<g clip-path="url(#clip0_1_12561)">
<path fill-rule="evenodd" clip-rule="evenodd" d="M14.0383 2.54005C13.7407 2.05727 13.3557 1.63938 12.9014 1.30523C12.4396 0.989766 11.937 0.74219 11.4046 0.575128C10.8283 0.385643 10.2326 0.259634 9.62651 0.198731C8.91883 0.131309 8.21112 0.0958514 7.49992 0.0991246H1.34843C0.745575 0.0447431 0.217601 0.497653 0.178773 1.1027C0.178773 1.1027 0.178773 1.13817 0.178773 1.15706V11.1831C1.03108 13.0185 2.44673 14.5333 4.22225 15.5047V13.4913C4.16437 12.8386 4.64492 12.263 5.29847 12.2086H7.14397C9.65861 12.2086 11.5813 11.6778 12.9072 10.6203C14.231 9.56234 14.9036 7.99665 14.9224 5.91552C14.9257 5.31817 14.8552 4.71989 14.7141 4.1377C14.5739 3.57211 14.3459 3.03448 14.0383 2.54005ZM10.4344 7.69376C10.2196 8.0643 9.89877 8.36298 9.51817 8.55221C9.1018 8.75218 8.65284 8.87095 8.19438 8.90271C7.69172 8.96709 7.18233 8.9993 6.67644 8.99603H4.90462C4.47823 8.99603 4.21599 8.65255 4.21599 8.14389V4.00915C4.18715 3.62343 4.52032 3.30796 4.90462 3.35322H6.67644C7.24954 3.35322 7.791 3.36956 8.29689 3.40502C8.75211 3.42394 9.19758 3.5336 9.60769 3.72634C9.98921 3.89317 10.3059 4.17948 10.5139 4.53928C10.7485 5.02183 10.8569 5.55943 10.8283 6.0961C10.8378 6.65216 10.7032 7.20214 10.4344 7.68793V7.69376ZM4.22482 16.1091C2.71013 15.5591 1.32892 14.6881 0.178773 13.5529V18.3981C0.123896 18.7876 0.402648 19.1448 0.79393 19.1833H3.57454C4.31178 19.1833 4.22482 18.3923 4.22482 18.3923V16.1091ZM42.4368 5.37907H40.0403C39.5663 5.34685 39.1408 5.66536 39.0315 6.12459L36.244 13.8329C36.244 13.8329 33.7833 6.81317 33.5978 6.26972C33.492 5.75193 33.0435 5.37907 32.5185 5.37252H30.3075C29.5192 5.37252 29.5192 5.98995 29.6252 6.23098C29.7307 6.47224 32.7491 14.7809 33.9311 17.9611C34.1171 18.3538 34.2483 18.7684 34.3187 19.1959C34.2418 19.6171 34.0851 20.0222 33.8505 20.3827C33.7612 20.5334 33.6587 20.6783 33.5436 20.8132C35.8213 20.1351 38.4647 17.6589 39.7943 14.9867C41.1328 11.2825 42.8988 6.34369 42.9783 6.08936C43.065 5.70085 43.065 5.37907 42.4368 5.37907ZM31.7492 21.5657C31.5409 21.5624 31.3358 21.5435 31.1341 21.5171C30.8806 21.4791 30.4001 21.5171 30.4001 21.9484V23.8004C30.4001 24.5111 30.746 24.5629 30.9227 24.6105C31.4933 24.7365 32.0756 24.7972 32.6587 24.7941C33.3476 24.813 34.03 24.6714 34.6584 24.3825C35.2285 24.0927 35.7376 23.6879 36.1512 23.1955C36.6218 22.6589 37.0198 22.0613 37.3339 21.4175C37.6733 20.7357 37.9967 19.9802 38.3043 19.1537L38.6633 18.1702C37.9488 18.8804 34.7995 21.8611 31.7492 21.5657ZM28.1189 7.59415C27.988 7.28216 27.8083 6.99307 27.5909 6.73546C27.3661 6.50095 27.1136 6.29188 26.8381 6.11827C26.5396 5.91551 26.2229 5.7419 25.8923 5.60121C25.5526 5.46866 25.2067 5.36577 24.8514 5.28598C24.4481 5.19544 24.0347 5.1378 23.6211 5.10886C23.1794 5.06384 22.6821 5.03817 22.1343 5.03817C18.4665 5.03817 16.3808 6.19902 15.8715 8.52025C15.778 8.89056 16.0344 9.25363 16.4129 9.28582H18.6716C19.2868 9.28582 19.2868 9.09636 19.5202 8.56551C19.6227 8.27641 19.8057 8.02209 20.0486 7.83541C20.6259 7.46229 21.3083 7.28544 21.9906 7.33724C22.6311 7.26956 23.2719 7.43056 23.8066 7.78757C24.2135 8.17025 24.4539 8.69688 24.4764 9.25691C24.4764 10.0225 24.243 10.527 23.294 10.527C21.0516 10.4462 18.6395 10.7006 17.2804 11.4851C15.9156 12.3215 15.1054 13.8231 15.1505 15.424C15.1375 16.0346 15.2595 16.6458 15.5155 17.202C15.7527 17.6846 16.1019 18.109 16.5276 18.4366C16.9795 18.8039 17.4987 19.0771 18.0564 19.2377C18.6837 19.4113 19.3342 19.4946 19.9845 19.4855C20.863 19.5011 21.7372 19.376 22.5763 19.1152C23.317 18.8097 24.018 18.4145 24.662 17.9354V18.3692C24.662 18.7939 24.7908 19.177 25.2771 19.177H27.8917C28.4202 19.177 28.5422 18.8006 28.5422 18.3307V10.2505C28.5457 9.74597 28.5104 9.24361 28.4397 8.7424C28.379 8.34969 28.2735 7.96446 28.1189 7.59415ZM24.5439 15.5335C24.5439 15.5335 23.8682 16.9545 21.4682 16.9545C20.8949 16.9808 20.3241 16.8224 19.8436 16.5048C19.4144 16.1697 19.1842 15.6396 19.2284 15.0964C19.1742 14.3598 19.5779 13.6681 20.2446 13.3562C21.2148 12.98 22.2499 12.8064 23.2914 12.8417C23.9675 12.742 24.5727 13.2698 24.5694 13.9547L24.5439 15.5335Z" fill="#333333"/>
<path fill-rule="evenodd" clip-rule="evenodd" d="M84.3303 10.3371C84.9487 11.3342 84.9487 12.5984 84.3303 13.5978C83.7152 14.5337 80.3615 18.1283 79.256 19.2833C78.2946 20.2827 76.9971 21.2958 75.7128 21.2958H49.0824C45.4778 21.2958 45.2637 20.0612 45.2637 17.3088V6.07735C45.2637 3.25699 46.0927 2.43402 48.5602 2.43402H75.7737C77.0457 2.43402 78.1858 3.09015 79.4645 4.41154C80.5823 5.53974 83.8851 9.66887 84.3303 10.3371Z" fill="#33CCCC"/>
<path fill-rule="evenodd" clip-rule="evenodd" d="M79.0508 14.5858C78.2436 16.7689 76.1163 18.1708 73.8 18.049C70.2559 18.049 67.8915 15.6274 67.8915 11.9969C67.8915 8.36686 70.3519 5.82328 73.6746 5.82328C76.997 5.82328 79.211 8.13238 79.3518 11.8555C79.3518 12.331 79.2361 12.7527 78.6407 12.7527H71.1212C71.1721 14.7463 72.1244 15.8395 73.822 15.8395C74.7448 15.8617 75.5936 15.3439 76.0005 14.5183C76.1605 14.2829 76.4271 14.1478 76.7084 14.1511H78.6474C78.8934 14.1415 79.0894 14.3636 79.0443 14.6079L79.0508 14.5858ZM51.309 6.77483V6.70741C51.309 6.34431 51.309 5.9906 50.6941 5.9906H48.4605C47.9381 5.9906 47.9128 6.27336 47.9128 6.72045V9.6822C48.7934 8.45323 49.9601 7.45382 51.309 6.77483ZM66.2643 17.4922V10.1834C66.2643 7.18996 64.9479 5.69516 62.3142 5.69516C61.5803 5.70403 60.8658 5.91615 60.2474 6.31233C59.565 6.73934 58.9563 7.27367 58.4437 7.89439C58.2133 7.22169 57.7613 6.64975 57.165 6.27037C56.4861 5.89418 55.7175 5.71037 54.9449 5.74251C53.8048 5.74931 52.7025 6.13199 51.8019 6.83014C51.6036 7.02919 47.906 9.91692 47.906 12.9296V17.5049C47.906 17.6463 47.8323 18.203 48.4543 18.203H50.7734C51.4943 18.203 51.4273 17.727 51.4273 17.5312V10.1228C51.8149 9.59519 52.6067 8.34447 53.9164 8.34447C54.3428 8.30599 54.7596 8.50173 54.9998 8.85573C55.2623 9.38258 55.3781 9.9713 55.3327 10.5598V17.5179C55.3327 17.6595 55.2593 18.2161 55.8807 18.2161H58.1749C58.8926 18.2161 58.8252 17.7403 58.8252 17.5403V10.0964C59.2444 9.57303 60.0555 8.31813 61.318 8.31813C61.75 8.28287 62.1666 8.47656 62.42 8.8296C62.686 9.35718 62.8038 9.94566 62.7564 10.5344V17.4922C62.7564 17.6341 62.6823 18.1896 63.3041 18.1896H65.6237C66.3509 18.1549 66.2643 17.6852 66.2643 17.4922ZM73.6874 8.12563C72.2779 8.12563 71.3263 9.10911 71.1179 10.7268H76.1605C76.0326 9.31189 75.2698 8.12563 73.6874 8.12563Z" fill="white"/>
</g>
<defs>
<clipPath id="clip0_1_12561">
<rect width="85" height="25" fill="white"/>
</clipPath>
</defs>
</svg>
