<svg width="62" height="31" viewBox="0 0 62 31" fill="none" xmlns="http://www.w3.org/2000/svg">
<path fill-rule="evenodd" clip-rule="evenodd" d="M32.9154 0.180768C32.8159 0.195273 32.7184 0.382404 32.598 0.613487C32.4763 0.847064 32.3312 1.12555 32.1371 1.31604C32.0166 1.4326 31.8832 1.49638 31.7553 1.55751C31.5838 1.63954 31.4222 1.71681 31.3151 1.91043C31.2791 1.97394 31.2671 2.06044 31.2538 2.15711C31.2407 2.2518 31.2263 2.35624 31.1866 2.45836C31.1156 2.64425 30.9648 2.75413 30.8201 2.85953C30.6424 2.98896 30.4739 3.11166 30.4739 3.3601C30.4725 3.70272 30.7016 3.85015 30.9779 4.02789C31.0944 4.10288 31.2194 4.18327 31.3389 4.28599C31.4469 4.38138 31.5214 4.46663 31.588 4.54292C31.7153 4.68865 31.814 4.80171 32.0636 4.89043C32.2172 4.9417 32.4059 4.88945 32.6082 4.83346C32.8344 4.77082 33.0776 4.7035 33.3074 4.77115L33.3754 4.79089C33.7066 4.88656 34.0111 4.9745 34.0869 5.31405C34.1582 5.64876 34.0818 6.16631 33.6486 6.10657C33.619 6.10323 33.5694 6.09192 33.5025 6.07669L33.5025 6.07668C33.2397 6.01683 32.7114 5.89648 32.0921 5.96175C31.1532 6.06715 30.0825 6.36947 29.9776 7.40397C29.9198 7.98127 30.6435 8.66255 31.3422 8.52396C31.6288 8.46851 31.6647 8.24716 31.7015 8.01937C31.7267 7.8638 31.7524 7.70523 31.8588 7.59446C32.0096 7.44121 32.4679 7.65549 33.0877 7.94528C33.8859 8.31845 34.9518 8.81683 35.9738 8.81683C36.7384 8.81683 37.3072 8.62574 37.8721 8.04141C37.8861 8.02948 37.9009 8.01403 37.9166 7.99763C37.9602 7.9521 38.0108 7.8993 38.0708 7.89457C38.148 7.90101 38.2821 7.97604 38.3265 8.00782C38.6026 8.22719 38.8661 8.48828 39.148 8.76767C40.3587 9.96744 41.91 11.5048 46.2705 11.5263C47.0269 11.5307 47.8874 11.8878 48.5912 12.5214C49.2184 13.0942 49.5846 13.9863 49.9415 14.8907C50.4799 16.2476 51.4432 17.568 52.9055 19.0365C52.9849 19.1154 54.1888 20.0399 54.2851 20.1086C54.2999 20.1193 54.3887 20.3275 54.3577 20.4438L54.3563 20.4793C54.3193 21.392 54.218 23.8877 56.1251 24.0025C56.5179 24.0219 56.4987 23.7981 56.4811 23.5927C56.4776 23.551 56.4741 23.5102 56.4741 23.4722C56.4738 23.382 56.4703 23.2919 56.4667 23.2017C56.4527 22.846 56.4386 22.4902 56.6282 22.1254C56.7818 21.8289 56.6365 21.6079 56.4434 21.3143C56.2276 20.9861 55.952 20.567 55.9676 19.85C55.9801 19.2528 55.6858 19.0678 55.3528 18.8584C55.121 18.7127 54.8703 18.555 54.6912 18.2384C54.6438 18.1543 54.5975 18.0777 54.5535 18.005C54.3637 17.6913 54.2187 17.4516 54.2317 17.0078C54.3301 13.9312 53.5691 11.9093 53.1901 11.4126C53.1267 11.3325 53.0656 11.2627 53.0115 11.2007C52.8126 10.9733 52.7068 10.8523 52.9193 10.7161C54.5326 9.66266 54.8982 8.68408 54.8982 8.68408L54.9418 8.58297C55.7825 6.63075 56.5454 4.85916 57.5911 4.07136C57.8048 3.90562 58.3545 3.50051 58.6912 3.3418C59.6842 2.87936 60.2059 2.59876 60.4946 2.32198C60.9502 1.88308 61.3113 0.966852 60.8737 0.411685C60.3301 -0.273423 59.3896 0.270077 58.9753 0.513466C56.8055 1.78567 55.9894 3.76932 55.3053 5.43225C55.0545 6.04178 54.8215 6.60821 54.546 7.08073C53.7267 8.48776 52.3943 9.52165 51.203 9.60614C50.3109 9.67151 49.3476 9.49309 48.3894 9.07712C46.416 8.22219 45.1992 7.15675 44.6892 6.71008L44.6891 6.71006C44.5968 6.62917 44.5276 6.56858 44.4813 6.53321C44.4017 6.47249 44.2536 6.34324 44.0477 6.16348C42.634 4.9295 38.4933 1.3151 35.0547 1.14708C35.0547 1.14708 34.5657 0.17936 34.443 0.164072C34.2725 0.14228 34.0996 0.348632 33.943 0.535531L33.943 0.53555C33.8351 0.664335 33.7349 0.78388 33.6486 0.813175C33.5468 0.846362 33.4095 0.670954 33.2728 0.496356C33.1427 0.330199 33.0131 0.164775 32.9154 0.180566V0.180768ZM15.5738 28.3261C15.2031 28.3173 14.8882 28.017 14.8882 27.6454L14.8894 15.5042H10.8393V28.8869C10.8393 29.5435 11.3772 30.0781 12.0373 30.0781H19.1149C19.7794 30.0781 20.3109 29.5435 20.3109 28.8869V15.504H16.2647L16.2614 27.6454C16.2614 28.017 15.9465 28.3173 15.5738 28.3261ZM23.0044 15.5042H29.1328L35.2625 15.504C35.9874 15.504 36.58 16.0869 36.58 16.8108V30.0781H32.5261V17.9081C32.5236 17.5354 32.2136 17.2403 31.8396 17.2403C31.4618 17.2403 31.1585 17.5285 31.1534 17.898V30.0781H27.1166V17.898C27.1084 17.5285 26.8045 17.2401 26.4265 17.2401C26.2459 17.2389 26.0723 17.3086 25.9439 17.434C25.8154 17.5593 25.7426 17.7299 25.7415 17.9083V30.0781H21.6875V16.8108C21.6875 16.0869 22.2781 15.5042 23.0044 15.5042ZM8.13879 26.4161H4.0472V30.0782H0V15.5042H8.16444C8.89526 15.5042 9.46587 16.091 9.46587 16.8169V25.1024C9.46684 25.4507 9.3274 25.7851 9.07834 26.0317C8.82928 26.2782 8.49112 26.4166 8.13858 26.4163L8.13879 26.4161ZM5.22345 17.4462C5.35214 17.5763 5.42309 17.7517 5.42065 17.9336V23.9268C5.42391 24.3307 5.09229 24.6113 4.73482 24.6113H4.04715V17.2401H4.73482C4.91894 17.2419 5.09477 17.316 5.22345 17.4462Z" fill="#E63129"/>
<path fill-rule="evenodd" clip-rule="evenodd" d="M43.79 26.3123V30.0781H47.985V16.4232C47.985 15.6781 47.3734 15.0781 46.6192 15.0781H39.5351C38.7821 15.0781 38.1699 15.6781 38.1699 16.4232V30.0781H42.3636V26.3123H43.79ZM43.7904 17.5472V24.4542H42.3641V17.5584C42.3681 17.1772 42.6878 16.8723 43.0757 16.8723C43.4673 16.8723 43.7805 17.1657 43.7904 17.5472Z" fill="#E63129"/>
</svg>
