<svg width="150" height="151" viewBox="0 0 150 151" fill="none" xmlns="http://www.w3.org/2000/svg">
<path d="M28.125 81.868V121.953C28.125 123.196 28.6189 124.389 29.4979 125.268C30.377 126.147 31.5693 126.641 32.8125 126.641H117.188C118.431 126.641 119.623 126.147 120.502 125.268C121.381 124.389 121.875 123.196 121.875 121.953V81.869" stroke="#1F2022" stroke-width="4" stroke-linecap="round" stroke-linejoin="round"/>
<path d="M31.6608 23.5156H118.339C119.358 23.5156 120.349 23.8474 121.162 24.4609C121.975 25.0743 122.567 25.9359 122.846 26.9154L131.25 56.3281H18.75L27.1536 26.9154C27.4335 25.9359 28.0248 25.0743 28.838 24.4609C29.6512 23.8474 30.6421 23.5156 31.6608 23.5156Z" stroke="#1F2022" stroke-width="4" stroke-linecap="round" stroke-linejoin="round"/>
<path d="M56.25 56.3281V65.7031C56.25 70.6759 54.2746 75.4451 50.7583 78.9614C47.2419 82.4777 42.4728 84.4531 37.5 84.4531C32.5272 84.4531 27.7581 82.4777 24.2417 78.9614C20.7254 75.4451 18.75 70.6759 18.75 65.7031V56.3281" stroke="#1F2022" stroke-width="4" stroke-linecap="round" stroke-linejoin="round"/>
<path d="M93.75 56.3281V65.7031C93.75 70.6759 91.7746 75.4451 88.2582 78.9614C84.7419 82.4777 79.9728 84.4531 75 84.4531C70.0272 84.4531 65.2581 82.4777 61.7417 78.9614C58.2254 75.4451 56.25 70.6759 56.25 65.7031V56.3281" stroke="#1F2022" stroke-width="4" stroke-linecap="round" stroke-linejoin="round"/>
<path d="M131.25 56.3281V65.7031C131.25 70.6759 129.275 75.4451 125.758 78.9614C122.242 82.4777 117.473 84.4531 112.5 84.4531C107.527 84.4531 102.758 82.4777 99.2418 78.9614C95.7254 75.4451 93.75 70.6759 93.75 65.7031V56.3281" stroke="#1F2022" stroke-width="4" stroke-linecap="round" stroke-linejoin="round"/>
</svg>
