<svg width="14" height="18" viewBox="0 0 14 18" fill="none" xmlns="http://www.w3.org/2000/svg">
<path d="M11.6924 9.67006C11.7165 12.2124 13.975 13.0585 14 13.0693C13.9809 13.1289 13.6391 14.275 12.8101 15.4587C12.0935 16.4821 11.3497 17.5018 10.1781 17.5229C9.02683 17.5436 8.65663 16.8558 7.34041 16.8558C6.02459 16.8558 5.61328 17.5018 4.52348 17.5436C3.39254 17.5855 2.53134 16.437 1.80876 15.4173C0.332243 13.3315 -0.79612 9.5234 0.718986 6.95286C1.47166 5.67632 2.81674 4.86796 4.27671 4.84723C5.38726 4.82654 6.43549 5.57727 7.11439 5.57727C7.79286 5.57727 9.06668 4.67445 10.4058 4.80704C10.9664 4.82984 12.54 5.0283 13.5505 6.47349C13.4691 6.52281 11.6728 7.54455 11.6924 9.67006V9.67006ZM9.5287 3.42712C10.1291 2.71698 10.5332 1.72839 10.423 0.744751C9.55753 0.778738 8.51099 1.30827 7.89021 2.01802C7.33387 2.64654 6.84664 3.65253 6.97811 4.6167C7.94277 4.68962 8.92825 4.13772 9.5287 3.42712" fill="white"/>
</svg>
